<svg width="38" height="38" viewBox="0 0 38 38" fill="none" xmlns="http://www.w3.org/2000/svg">
<rect width="38" height="38" rx="12" fill="#F7F7F7"/>
<path fill-rule="evenodd" clip-rule="evenodd" d="M21.6 18.1V19.9H23.4V18.1H21.6ZM18 18.1V19.9H19.8V18.1H18ZM14.4 18.1V19.9H16.2V18.1H14.4ZM12.6 11.8C11.6059 11.8 10.8 12.6059 10.8 13.6V26.2C10.8 27.1941 11.6059 28 12.6 28H25.2C26.199 28 27 27.19 27 26.2V13.6C27 12.6059 26.1941 11.8 25.2 11.8H24.3V10H22.5V11.8H15.3V10H13.5V11.8H12.6ZM12.6 26.2V16.3H25.2V26.2H12.6ZM21.6 21.7V23.5H23.4V21.7H21.6ZM18 21.7V23.5H19.8V21.7H18ZM14.4 21.7V23.5H16.2V21.7H14.4Z" fill="#8F92A1"/>
</svg>
