<svg width="18" height="18" viewBox="0 0 18 18" fill="none" xmlns="http://www.w3.org/2000/svg">
<path fill-rule="evenodd" clip-rule="evenodd" d="M5.25 6V13.5C5.25 14.3284 5.92157 15 6.75 15H11.25C12.0784 15 12.75 14.3284 12.75 13.5V6H14.25V13.5C14.25 15.1569 12.9069 16.5 11.25 16.5H6.75C5.09315 16.5 3.75 15.1569 3.75 13.5V6H5.25Z" fill="#12131A"/>
<path d="M7.5 8.25C7.08579 8.25 6.75 8.58579 6.75 9V12C6.75 12.4142 7.08579 12.75 7.5 12.75C7.91421 12.75 8.25 12.4142 8.25 12V9C8.25 8.58579 7.91421 8.25 7.5 8.25Z" fill="#12131A"/>
<path d="M10.5 8.25C10.0858 8.25 9.75 8.58579 9.75 9V12C9.75 12.4142 10.0858 12.75 10.5 12.75C10.9142 12.75 11.25 12.4142 11.25 12V9C11.25 8.58579 10.9142 8.25 10.5 8.25Z" fill="#12131A"/>
<path fill-rule="evenodd" clip-rule="evenodd" d="M6 4.5V3.75C6 2.50736 7.00736 1.5 8.25 1.5H9.75C10.9926 1.5 12 2.50736 12 3.75V4.5H14.25C14.6642 4.5 15 4.83579 15 5.25C15 5.66421 14.6642 6 14.25 6H3.75C3.33579 6 3 5.66421 3 5.25C3 4.83579 3.33579 4.5 3.75 4.5H6ZM7.5 3.75C7.5 3.33579 7.83579 3 8.25 3H9.75C10.1642 3 10.5 3.33579 10.5 3.75V4.5H7.5V3.75Z" fill="#12131A"/>
</svg>
    