<svg width="16" height="16" viewBox="0 0 16 16" fill="none" xmlns="http://www.w3.org/2000/svg">
<path fill-rule="evenodd" clip-rule="evenodd" d="M11.3333 2.66668C11.3333 3.03487 11.0349 3.33334 10.6667 3.33334L5.33334 3.33334C4.96515 3.33334 4.66668 3.03487 4.66668 2.66668C4.66668 2.29849 4.96515 2.00001 5.33334 2.00001L10.6667 2.00001C11.0349 2.00001 11.3333 2.29849 11.3333 2.66668Z" fill="black" fill-opacity="0.4"/>
<path d="M8.00847 14C8.17907 14 8.3366 13.9427 8.4668 13.8127C9.13347 13.146 13.1335 9.14598 13.8001 8.47931C14.2201 8.05931 13.9357 7.33331 13.3418 7.33331H11.3418V5.3333C11.3418 4.9653 11.0433 4.66664 10.6751 4.66664L5.3418 4.66664C4.9736 4.66664 4.67513 4.9653 4.67513 5.3333L4.67513 7.33331L2.67513 7.33331C2.0812 7.33331 1.776 8.05931 2.19593 8.47931L7.52927 13.8127C7.65947 13.9427 7.83787 14 8.00847 14ZM7.98767 12.3747L4.27927 8.66665L6.00399 8.66699C6.00847 8.33366 6.00399 8.33366 6.00847 7.99998V5.99997L10.0085 5.99997V7.99998C10.0085 8.36798 10.0085 8.33366 10.0085 8.66665L11.7168 8.66665C10.4678 9.91532 8.82513 11.5373 7.98767 12.3747Z" fill="#8F92A1"/>
</svg>
