<svg width="18" height="18" viewBox="0 0 18 18" fill="none" xmlns="http://www.w3.org/2000/svg">
<path d="M3 15.75C3 15.3358 3.33579 15 3.75 15H14.25C14.6642 15 15 15.3358 15 15.75C15 16.1642 14.6642 16.5 14.25 16.5H3.75C3.33579 16.5 3 16.1642 3 15.75Z" fill="#12131A"/>
<path fill-rule="evenodd" clip-rule="evenodd" d="M9.30887 2.38069C10.4804 1.20912 12.3799 1.20912 13.5515 2.38069L14.1195 2.94871C15.2911 4.12028 15.2911 6.01978 14.1195 7.19136L8.93995 12.3709C8.73187 12.579 8.46719 12.7212 8.17886 12.78L4.80117 13.4685C3.74776 13.6832 2.81713 12.7526 3.03181 11.6991L3.72017 8.32136C3.77893 8.03301 3.92121 7.76831 4.1293 7.56022L9.30887 2.38069ZM12.4908 3.44135C11.9051 2.85557 10.9553 2.85557 10.3695 3.44135L10.0608 3.75008L12.7501 6.43942L13.0589 6.13069C13.6446 5.54491 13.6446 4.59516 13.0589 4.00937L12.4908 3.44135ZM6.31078 7.50007L9.00013 4.81074L11.6895 7.50008L9.00012 10.1894L6.31078 7.50007ZM5.25012 8.56073L5.18996 8.62089L4.5016 11.9987L7.87929 11.3102L7.93946 11.2501L5.25012 8.56073Z" fill="#12131A"/>
</svg>
