<svg width="18" height="18" viewBox="0 0 18 18" fill="none" xmlns="http://www.w3.org/2000/svg">
<path fill-rule="evenodd" clip-rule="evenodd" d="M5.25 15C5.25 14.5858 5.58579 14.25 6 14.25H12C12.4142 14.25 12.75 14.5858 12.75 15C12.75 15.4142 12.4142 15.75 12 15.75H6C5.58579 15.75 5.25 15.4142 5.25 15Z" fill="#5B9D50" fill-opacity="0.7"/>
<path d="M8.99048 2.25C8.79855 2.25 8.62133 2.3145 8.47485 2.46076C7.72485 3.21076 3.22485 7.71077 2.47485 8.46078C2.00235 8.93328 2.3223 9.75002 2.99048 9.75002H5.24048V12C5.24048 12.414 5.57625 12.75 5.99048 12.75H11.9905C12.4047 12.75 12.7405 12.414 12.7405 12V9.75002H14.9905C15.6587 9.75002 16.002 8.93328 15.5296 8.46078L9.52958 2.46076C9.3831 2.3145 9.1824 2.25 8.99048 2.25ZM9.01388 4.0785L13.1858 8.25002L11.2455 8.24963C11.2405 8.62463 11.2455 8.62463 11.2405 9.00002V11.25H6.74048V9.00002C6.74048 8.58602 6.74048 8.62463 6.74048 8.25002L4.8186 8.25002C6.22373 6.84527 8.07173 5.0205 9.01388 4.0785Z" fill="#5B9D50"/>
</svg>
