<svg width="48" height="48" viewBox="0 0 48 48" fill="none" xmlns="http://www.w3.org/2000/svg">
<rect width="48" height="48" rx="12" fill="white"/>
<path fill-rule="evenodd" clip-rule="evenodd" d="M32 28C32 27.4477 31.5523 27 31 27H25C24.4477 27 24 27.4477 24 28C24 28.5523 24.4477 29 25 29H31C31.5523 29 32 28.5523 32 28Z" fill="black" fill-opacity="0.4"/>
<path d="M31.0022 19C31.5542 19 32.0022 19.4477 32.0022 20C32.0022 20.5523 31.5542 21 31.0022 21H17.0022C16.4502 21 16.0022 20.5523 16.0022 20C16.0022 19.4477 16.4502 19 17.0022 19H31.0022ZM31.0022 23C31.5542 23 32.0022 23.4477 32.0022 24C32.0022 24.5523 31.5542 25 31.0022 25H21.0022C20.4502 25 20.0022 24.5523 20.0022 24C20.0022 23.4477 20.4502 23 21.0022 23H31.0022Z" fill="black"/>
</svg>
