<svg width="36" height="41" viewBox="0 0 36 41" fill="none" xmlns="http://www.w3.org/2000/svg">
<path opacity="0.4" fill-rule="evenodd" clip-rule="evenodd" d="M19.7529 36.1022L19.7453 23.8018L30.1811 30.0099L19.7529 36.1022ZM17.8858 37.1351H17.9818C17.9701 37.1401 17.955 37.1451 17.9328 37.1451C17.9162 37.1451 17.9007 37.1411 17.8858 37.1351V37.1351ZM3.77658 28.8689C3.73662 28.8453 3.71175 28.8016 3.71175 28.7547L3.72165 14.2695L16.033 21.5932L16.0417 36.0573L3.77658 28.8689ZM17.8902 3.90443C17.8978 3.90004 17.9204 3.88688 17.9552 3.88688C17.9784 3.88688 18.0002 3.89277 18.0203 3.90456L30.1822 11.0325L17.8883 18.3357L5.64998 11.0554L17.8902 3.90443ZM21.5556 20.5171L32.1752 14.2086L32.1666 26.8294L21.5556 20.5171ZM33.9695 8.90704L19.8783 0.648241C19.2836 0.299803 18.6194 0.125397 17.9553 0.125397C17.293 0.125397 16.6308 0.298675 16.0371 0.645608L1.9346 8.88435C0.745482 9.57897 0.0124926 10.8638 0.0115029 12.2546L0.000245144 28.752C-0.000744547 30.143 0.730513 31.4288 1.91851 32.1251L16.0097 40.3836C16.6045 40.7324 17.2686 40.9066 17.9327 40.9066C18.5951 40.9066 19.2573 40.7333 19.851 40.3865L33.9534 32.1476C35.1424 31.453 35.8755 30.1684 35.8765 28.7774L35.8879 12.28C35.8888 10.8891 35.1575 9.60329 33.9695 8.90704V8.90704Z" fill="#025464"/>
<path fill-rule="evenodd" clip-rule="evenodd" d="M17.9325 37.1452C17.9161 37.1452 17.9006 37.1412 17.8855 37.1352H17.9815C17.97 37.1402 17.9548 37.1452 17.9325 37.1452M17.9552 3.88692C17.9784 3.88692 18.0002 3.89282 18.0202 3.9046L22.62 6.60045L35.8862 14.3054L35.8877 12.28C35.8885 10.889 35.1573 9.60335 33.9693 8.90698L19.8782 0.648302C19.2834 0.299739 18.6192 0.125458 17.9552 0.125458C17.2929 0.125458 16.6306 0.298736 16.0368 0.645669L1.93435 8.88441C0.826392 9.53163 0.115176 10.6914 0.0223925 11.9719L22.5203 25.4528L29.183 29.4163L30.1809 30.0099L24.7017 33.2109V33.2219L21.1922 35.2721L19.7532 36.1321L19.712 36.1307C19.1546 36.4264 18.5438 36.576 17.9325 36.576C17.2684 36.576 16.6043 36.4015 16.0095 36.053L10.7223 32.9543V32.9384L0.0014853 26.6521L7.68288e-07 28.7521C-0.000865211 30.143 0.730392 31.4288 1.91839 32.1251L16.0095 40.3837C16.6043 40.7324 17.2684 40.9067 17.9325 40.9067C18.5948 40.9067 19.2572 40.7333 19.8507 40.3866L33.9532 32.1477C35.0642 31.4987 35.7767 30.3346 35.8663 29.05L32.1244 26.8538L29.4082 25.202L15.0522 16.6486L5.6499 11.0553L17.8903 3.90448C17.8977 3.90009 17.9203 3.88692 17.9552 3.88692" fill="#025464"/>
</svg>
