<svg width="48" height="48" viewBox="0 0 48 48" fill="none" xmlns="http://www.w3.org/2000/svg">
<g clip-path="url(#clip0_39_7974)">
<rect x="-1" y="1" width="46" height="46" rx="11" transform="matrix(-1 0 0 1 46 0)" stroke="white" stroke-opacity="0.2" stroke-width="2"/>
<path fill-rule="evenodd" clip-rule="evenodd" d="M21.92 27.59L19.33 25H29V23H19.33L21.92 20.41L20.5 19L15.5 24L20.5 29L21.92 27.59ZM17 15C15.8954 15 15 15.8954 15 17V21.67L17 19.67V17H31V31H17V28.33L15 26.33V31C15 32.1046 15.8954 33 17 33H31C32.11 33 33 32.1 33 31V17C33 15.89 32.11 15 31 15H17Z" fill="white"/>
<mask id="mask0_39_7974" style="mask-type:luminance" maskUnits="userSpaceOnUse" x="15" y="15" width="18" height="18">
<path fill-rule="evenodd" clip-rule="evenodd" d="M21.92 27.59L19.33 25H29V23H19.33L21.92 20.41L20.5 19L15.5 24L20.5 29L21.92 27.59ZM17 15C15.8954 15 15 15.8954 15 17V21.67L17 19.67V17H31V31H17V28.33L15 26.33V31C15 32.1046 15.8954 33 17 33H31C32.11 33 33 32.1 33 31V17C33 15.89 32.11 15 31 15H17Z" fill="white"/>
</mask>
<g mask="url(#mask0_39_7974)">
</g>
</g>
<defs>
<clipPath id="clip0_39_7974">
<rect width="48" height="48" fill="white" transform="matrix(-1 0 0 1 48 0)"/>
</clipPath>
</defs>
</svg>
