<svg width="18" height="18" viewBox="0 0 18 18" fill="none" xmlns="http://www.w3.org/2000/svg">
<path fill-rule="evenodd" clip-rule="evenodd" d="M12.75 3C12.75 3.41421 12.4142 3.75 12 3.75L6 3.75C5.58579 3.75 5.25 3.41421 5.25 3C5.25 2.58579 5.58579 2.25 6 2.25L12 2.25C12.4142 2.25 12.75 2.58579 12.75 3Z" fill="#FF0000" fill-opacity="0.7"/>
<path d="M9.00952 15.75C9.20145 15.75 9.37867 15.6855 9.52515 15.5392C10.2751 14.7892 14.7751 10.2892 15.5251 9.53922C15.9976 9.06672 15.6777 8.24998 15.0095 8.24998H12.7595L12.7595 5.99997C12.7595 5.58597 12.4237 5.24996 12.0095 5.24996L6.00952 5.24996C5.5953 5.24996 5.25952 5.58597 5.25952 5.99997V8.24998L3.00952 8.24998C2.34135 8.24998 1.998 9.06672 2.47042 9.53922L8.47042 15.5392C8.6169 15.6855 8.8176 15.75 9.00952 15.75ZM8.98612 13.9215L4.81417 9.74998L6.75449 9.75037C6.75952 9.37537 6.75449 9.37537 6.75952 8.99998L6.75952 6.74997L11.2595 6.74997V8.99998C11.2595 9.41398 11.2595 9.37537 11.2595 9.74998L13.1814 9.74998C11.7763 11.1547 9.92827 12.9795 8.98612 13.9215Z" fill="#FF0000"/>
</svg>
