<svg width="48" height="48" viewBox="0 0 48 48" fill="none" xmlns="http://www.w3.org/2000/svg">
<g clip-path="url(#clip0_6_7355)">
<rect width="48" height="48" rx="12" transform="matrix(-1 0 0 1 48 0)" fill="white" fill-opacity="0.2"/>
<path fill-rule="evenodd" clip-rule="evenodd" d="M24 19.2C21.349 19.2 19.2 21.349 19.2 24C19.2 26.651 21.349 28.8 24 28.8C26.651 28.8 28.8 26.651 28.8 24C28.8 21.349 26.651 19.2 24 19.2ZM24 21.6C25.3255 21.6 26.4 22.6745 26.4 24C26.4 25.3255 25.3255 26.4 24 26.4C22.6745 26.4 21.6 25.3255 21.6 24C21.6 22.6745 22.6745 21.6 24 21.6ZM26.4 36C26.7 36 26.952 35.784 27 35.496L27.444 32.316C28.2 32.016 28.848 31.608 29.472 31.128L32.46 32.34C32.724 32.436 33.048 32.34 33.192 32.076L35.592 27.924C35.748 27.66 35.676 27.336 35.448 27.156L32.916 25.164L33 24L32.916 22.8L35.448 20.844C35.676 20.664 35.748 20.34 35.592 20.076L33.192 15.924C33.048 15.66 32.724 15.552 32.46 15.66L29.472 16.86C28.848 16.392 28.2 15.984 27.444 15.684L27 12.504C26.952 12.216 26.7 12 26.4 12H21.6C21.3 12 21.048 12.216 21 12.504L20.556 15.684C19.8 15.984 19.152 16.392 18.528 16.86L15.54 15.66C15.276 15.552 14.952 15.66 14.808 15.924L12.408 20.076C12.252 20.34 12.324 20.664 12.552 20.844L15.084 22.8L15 24L15.084 25.2L12.552 27.156C12.324 27.336 12.252 27.66 12.408 27.924L14.808 32.076C14.952 32.34 15.276 32.448 15.54 32.34L18.528 31.14C19.152 31.608 19.8 32.016 20.556 32.316L21 35.496C21.048 35.784 21.3 36 21.6 36H26.4ZM24.9 14.4L25.344 17.532C26.784 17.832 28.056 18.6 28.98 19.668L31.872 18.42L32.772 19.98L30.24 21.84C30.72 23.244 30.72 24.768 30.24 26.16L32.784 28.032L31.884 29.592L28.968 28.344C28.044 29.4 26.784 30.168 25.356 30.456L24.912 33.6H23.088L22.644 30.468C21.216 30.168 19.956 29.4 19.032 28.344L16.116 29.592L15.216 28.032L17.76 26.172C17.28 24.768 17.28 23.244 17.76 21.84L15.228 19.98L16.128 18.42L19.02 19.668C19.944 18.6 21.216 17.832 22.656 17.544L23.1 14.4H24.9Z" fill="white"/>
<mask id="mask0_6_7355" style="mask-type:luminance" maskUnits="userSpaceOnUse" x="12" y="12" width="24" height="24">
<path fill-rule="evenodd" clip-rule="evenodd" d="M24 19.2C21.349 19.2 19.2 21.349 19.2 24C19.2 26.651 21.349 28.8 24 28.8C26.651 28.8 28.8 26.651 28.8 24C28.8 21.349 26.651 19.2 24 19.2ZM24 21.6C25.3255 21.6 26.4 22.6745 26.4 24C26.4 25.3255 25.3255 26.4 24 26.4C22.6745 26.4 21.6 25.3255 21.6 24C21.6 22.6745 22.6745 21.6 24 21.6ZM26.4 36C26.7 36 26.952 35.784 27 35.496L27.444 32.316C28.2 32.016 28.848 31.608 29.472 31.128L32.46 32.34C32.724 32.436 33.048 32.34 33.192 32.076L35.592 27.924C35.748 27.66 35.676 27.336 35.448 27.156L32.916 25.164L33 24L32.916 22.8L35.448 20.844C35.676 20.664 35.748 20.34 35.592 20.076L33.192 15.924C33.048 15.66 32.724 15.552 32.46 15.66L29.472 16.86C28.848 16.392 28.2 15.984 27.444 15.684L27 12.504C26.952 12.216 26.7 12 26.4 12H21.6C21.3 12 21.048 12.216 21 12.504L20.556 15.684C19.8 15.984 19.152 16.392 18.528 16.86L15.54 15.66C15.276 15.552 14.952 15.66 14.808 15.924L12.408 20.076C12.252 20.34 12.324 20.664 12.552 20.844L15.084 22.8L15 24L15.084 25.2L12.552 27.156C12.324 27.336 12.252 27.66 12.408 27.924L14.808 32.076C14.952 32.34 15.276 32.448 15.54 32.34L18.528 31.14C19.152 31.608 19.8 32.016 20.556 32.316L21 35.496C21.048 35.784 21.3 36 21.6 36H26.4ZM24.9 14.4L25.344 17.532C26.784 17.832 28.056 18.6 28.98 19.668L31.872 18.42L32.772 19.98L30.24 21.84C30.72 23.244 30.72 24.768 30.24 26.16L32.784 28.032L31.884 29.592L28.968 28.344C28.044 29.4 26.784 30.168 25.356 30.456L24.912 33.6H23.088L22.644 30.468C21.216 30.168 19.956 29.4 19.032 28.344L16.116 29.592L15.216 28.032L17.76 26.172C17.28 24.768 17.28 23.244 17.76 21.84L15.228 19.98L16.128 18.42L19.02 19.668C19.944 18.6 21.216 17.832 22.656 17.544L23.1 14.4H24.9Z" fill="white"/>
</mask>
<g mask="url(#mask0_6_7355)">
</g>
</g>
<defs>
<clipPath id="clip0_6_7355">
<rect width="48" height="48" fill="white" transform="matrix(-1 0 0 1 48 0)"/>
</clipPath>
</defs>
</svg>
