<svg width="16" height="16" viewBox="0 0 16 16" fill="none" xmlns="http://www.w3.org/2000/svg">
<path fill-rule="evenodd" clip-rule="evenodd" d="M4.66666 13.3333C4.66666 12.9651 4.96513 12.6667 5.33332 12.6667H10.6667C11.0348 12.6667 11.3333 12.9651 11.3333 13.3333C11.3333 13.7015 11.0348 14 10.6667 14H5.33332C4.96513 14 4.66666 13.7015 4.66666 13.3333Z" fill="black" fill-opacity="0.4"/>
<path d="M7.99153 2C7.82093 2 7.6634 2.05734 7.5332 2.18734C6.86653 2.85401 2.86653 6.85402 2.19987 7.52069C1.77987 7.94069 2.06427 8.66669 2.6582 8.66669H4.6582V10.6667C4.6582 11.0347 4.95667 11.3334 5.32487 11.3334H10.6582C11.0264 11.3334 11.3249 11.0347 11.3249 10.6667V8.66669H13.3249C13.9188 8.66669 14.224 7.94069 13.8041 7.52069L8.47073 2.18734C8.34053 2.05734 8.16213 2 7.99153 2ZM8.01233 3.62533L11.7207 7.33335L9.99601 7.33301C9.99153 7.66634 9.99601 7.66634 9.99153 8.00002V10H5.99153V8.00002C5.99153 7.63202 5.99153 7.66634 5.99153 7.33335L4.2832 7.33335C5.5322 6.08468 7.17487 4.46267 8.01233 3.62533Z" fill="#8F92A1"/>
</svg>
