<svg width="48" height="48" viewBox="0 0 48 48" fill="none" xmlns="http://www.w3.org/2000/svg">
<g clip-path="url(#clip0_6_7352)">
<rect width="48" height="48" rx="12" transform="matrix(-1 0 0 1 48 0)" fill="white" fill-opacity="0.2"/>
<path fill-rule="evenodd" clip-rule="evenodd" d="M24 13.3333C21.0545 13.3333 18.6667 15.7211 18.6667 18.6667C18.6667 21.6122 21.0545 24 24 24C26.9455 24 29.3333 21.6122 29.3333 18.6667C29.3333 15.7211 26.9455 13.3333 24 13.3333ZM24 16C25.4728 16 26.6667 17.1939 26.6667 18.6667C26.6667 20.1394 25.4728 21.3333 24 21.3333C22.5272 21.3333 21.3333 20.1394 21.3333 18.6667C21.3333 17.1939 22.5272 16 24 16ZM24 25.3333C20.44 25.3333 13.3333 27.1067 13.3333 30.6667V34.6667H34.6667V30.6667C34.6667 27.1067 27.56 25.3333 24 25.3333ZM24 27.8667C27.96 27.8667 32.1333 29.8133 32.1333 30.6667V32.1333H15.8667V30.6667C15.8667 29.8133 20.04 27.8667 24 27.8667Z" fill="white"/>
<mask id="mask0_6_7352" style="mask-type:luminance" maskUnits="userSpaceOnUse" x="13" y="13" width="22" height="22">
<path fill-rule="evenodd" clip-rule="evenodd" d="M24 13.3333C21.0545 13.3333 18.6667 15.7211 18.6667 18.6667C18.6667 21.6122 21.0545 24 24 24C26.9455 24 29.3333 21.6122 29.3333 18.6667C29.3333 15.7211 26.9455 13.3333 24 13.3333ZM24 16C25.4728 16 26.6667 17.1939 26.6667 18.6667C26.6667 20.1394 25.4728 21.3333 24 21.3333C22.5272 21.3333 21.3333 20.1394 21.3333 18.6667C21.3333 17.1939 22.5272 16 24 16ZM24 25.3333C20.44 25.3333 13.3333 27.1067 13.3333 30.6667V34.6667H34.6667V30.6667C34.6667 27.1067 27.56 25.3333 24 25.3333ZM24 27.8667C27.96 27.8667 32.1333 29.8133 32.1333 30.6667V32.1333H15.8667V30.6667C15.8667 29.8133 20.04 27.8667 24 27.8667Z" fill="white"/>
</mask>
<g mask="url(#mask0_6_7352)">
</g>
</g>
<defs>
<clipPath id="clip0_6_7352">
<rect width="48" height="48" fill="white" transform="matrix(-1 0 0 1 48 0)"/>
</clipPath>
</defs>
</svg>
