<svg width="48" height="54" viewBox="0 0 48 54" fill="none" xmlns="http://www.w3.org/2000/svg">
<path opacity="0.4" fill-rule="evenodd" clip-rule="evenodd" d="M21.6631 47.5493L21.6732 31.3488L7.75876 39.5252L21.6631 47.5493ZM24.1526 48.9097H24.0246C24.0402 48.9163 24.0603 48.9229 24.09 48.9229C24.1121 48.9229 24.1327 48.9176 24.1526 48.9097ZM42.965 38.0225C43.0183 37.9914 43.0514 37.9338 43.0514 37.8721L43.0382 18.794L26.6231 28.4399L26.6115 47.4902L42.965 38.0225ZM24.1464 5.14244C24.1364 5.13666 24.1062 5.11932 24.0598 5.11932C24.0288 5.11932 23.9998 5.12708 23.9731 5.1426L7.75716 14.5307L24.1491 24.1495L40.4668 14.5607L24.1464 5.14244ZM19.2596 27.0225L5.10009 18.7138L5.11164 35.3364L19.2596 27.0225ZM2.70755 11.7313L21.4958 0.853815C22.2887 0.394898 23.1744 0.165192 24.0598 0.165192C24.9429 0.165192 25.8259 0.393412 26.6175 0.850348L45.4208 11.7014C47.0063 12.6162 47.9836 14.3084 47.9849 16.1403L47.9999 37.8686C48.0012 39.7006 47.0262 41.3941 45.4422 42.3111L26.6539 53.1882C25.8609 53.6476 24.9754 53.877 24.09 53.877C23.2069 53.877 22.3239 53.6488 21.5323 53.192L2.729 42.3408C1.14368 41.426 0.166191 39.734 0.164871 37.9019L0.149696 16.1736C0.148544 14.3418 1.12355 12.6483 2.70755 11.7313Z" fill="white"/>
<path fill-rule="evenodd" clip-rule="evenodd" d="M24.0901 48.9229C24.112 48.9229 24.1326 48.9176 24.1528 48.9097H24.0248C24.0401 48.9163 24.0604 48.9229 24.0901 48.9229ZM24.0597 5.11935C24.0289 5.11935 23.9997 5.12711 23.9731 5.14263L17.84 8.69326L0.151787 18.8413L0.149803 16.1737C0.148651 14.3416 1.12366 12.6483 2.70766 11.7311L21.4958 0.853846C22.2889 0.394763 23.1745 0.165222 24.0597 0.165222C24.9429 0.165222 25.8258 0.393442 26.6176 0.850378L45.4209 11.7014C46.8982 12.5538 47.8465 14.0814 47.9702 15.7679L17.973 33.5232L9.08935 38.7434L7.75888 39.5253L15.0644 43.7412V43.7556L19.7437 46.4559L21.6624 47.5886L21.7173 47.5868C22.4606 47.9762 23.2749 48.1732 24.0901 48.1732C24.9755 48.1732 25.861 47.9435 26.6541 47.4844L33.7036 43.4032V43.3822L47.9981 35.1027L48 37.8686C48.0012 39.7005 47.0262 41.394 45.4422 42.3111L26.6541 53.1883C25.861 53.6475 24.9755 53.8771 24.0901 53.8771C23.207 53.8771 22.3238 53.6487 21.5324 53.1921L2.72911 42.3409C1.2477 41.4861 0.297764 39.9528 0.178341 38.261L5.16754 35.3684L8.78915 33.1929L27.9304 21.9274L40.4668 14.5606L24.1463 5.14247C24.1364 5.13669 24.1063 5.11935 24.0597 5.11935Z" fill="white"/>
</svg>
